<svg width="80" height="80" viewBox="0 0 80 80" fill="none" xmlns="http://www.w3.org/2000/svg">
<path d="M0.0654297 8.08725C0.0654297 3.89733 3.46203 0.500732 7.65195 0.500732H71.8844C76.0744 0.500732 79.471 3.89733 79.471 8.08725V72.3197C79.471 76.5097 76.0744 79.9063 71.8844 79.9063H7.65195C3.46203 79.9063 0.0654297 76.5097 0.0654297 72.3197V8.08725Z" fill="#F7DF1E"/>
<path d="M20.9437 66.8577L27.0201 63.1802C28.1925 65.2587 29.2589 67.0174 31.817 67.0174C34.2689 67.0174 35.8151 66.0584 35.8151 62.3275V36.9556H43.2771V62.433C43.2771 70.1617 38.7466 73.6797 32.1367 73.6797C26.1674 73.6797 22.7024 70.5882 20.9434 66.8571M47.3302 66.0581L53.406 62.5403C55.0055 65.1523 57.0844 67.0711 60.7618 67.0711C63.854 67.0711 65.8255 65.5252 65.8255 63.393C65.8255 60.8347 63.8 59.9283 60.3887 58.4364L58.5236 57.6361C53.1398 55.3448 49.5687 52.4664 49.5687 46.39C49.5687 40.7931 53.8328 36.5288 60.4957 36.5288C65.2396 36.5288 68.6509 38.1814 71.1025 42.4988L65.2923 46.2302C64.0128 43.9383 62.6275 43.0323 60.4954 43.0323C58.3099 43.0323 56.924 44.4182 56.924 46.2302C56.924 48.4688 58.3099 49.3754 61.5078 50.7613L63.3732 51.5606C69.7163 54.2794 73.2874 57.0508 73.2874 63.2866C73.2874 70.0032 68.0107 73.6807 60.9216 73.6807C53.9925 73.6807 49.5151 70.376 47.3299 66.0584" fill="black"/>
</svg>
