<svg width="71" height="80" viewBox="0 0 71 80" fill="none" xmlns="http://www.w3.org/2000/svg">
<path d="M35.3502 79.906C34.2624 79.906 33.247 79.6142 32.3044 79.1034L22.6598 73.3403C21.2097 72.5381 21.9347 72.2463 22.3698 72.1004C24.3279 71.4437 24.6902 71.2978 26.7206 70.1307C26.9382 69.9848 27.2285 70.0576 27.446 70.2035L34.8427 74.6537C35.1326 74.7995 35.495 74.7995 35.7125 74.6537L64.647 57.8022C64.9351 57.6563 65.0829 57.3645 65.0829 57V23.3702C65.0829 23.0052 64.9351 22.7135 64.647 22.5676L35.7125 5.78924C35.4226 5.64335 35.0598 5.64335 34.8427 5.78924L5.90893 22.5676C5.6186 22.7135 5.47382 23.0784 5.47382 23.3702V57C5.47382 57.2918 5.6186 57.6563 5.90893 57.8022L13.8131 62.3979C18.0914 64.5866 20.7745 62.0333 20.7745 59.4801V26.2879C20.7745 25.8503 21.1369 25.4126 21.6448 25.4126H25.3429C25.778 25.4126 26.2131 25.7775 26.2131 26.2879V59.4801C26.2131 65.2429 23.0949 68.5987 17.6563 68.5987C15.9886 68.5987 14.6833 68.5987 10.9848 66.7749L3.37062 62.3979C1.48537 61.3039 0.325195 59.2611 0.325195 57.0727V23.4429C0.325195 21.2546 1.48537 19.2121 3.37062 18.1178L32.3044 1.26669C34.1172 0.245088 36.5827 0.245088 38.3956 1.26669L67.3305 18.1178C69.2142 19.2121 70.374 21.2546 70.374 23.4429V57.0727C70.374 59.2611 69.2142 61.3039 67.3305 62.3979L38.3956 79.2493C37.5254 79.6142 36.438 79.906 35.3502 79.906Z" fill="#5FA04E"/>
<path d="M44.3813 56.8935C31.751 56.8935 29.1533 51.0157 29.1533 46.0195C29.1533 45.5787 29.5139 45.1379 30.019 45.1379H33.7716C34.2046 45.1379 34.5655 45.4318 34.5655 45.8726C35.1426 49.7666 36.8026 51.6767 44.453 51.6767C50.5144 51.6767 53.1131 50.281 53.1131 46.9748C53.1131 45.0642 52.389 43.6681 42.9364 42.7133C35.0706 41.9049 30.1634 40.1417 30.1634 33.7494C30.1634 27.7983 35.0706 24.2715 43.2973 24.2715C52.536 24.2715 57.0811 27.5045 57.6582 34.5577C57.6582 34.778 57.5865 34.9986 57.4432 35.2188C57.2961 35.3657 57.0811 35.513 56.8624 35.513H53.0377C52.6794 35.513 52.3173 35.2188 52.2456 34.8516C51.3781 30.8107 49.1414 29.4879 43.2253 29.4879C36.5861 29.4879 35.7921 31.8392 35.7921 33.6025C35.7921 35.7332 36.7302 36.3946 45.6789 37.5701C54.554 38.7456 58.7407 40.4356 58.7407 46.7542C58.7407 53.2197 53.4715 56.8935 44.3813 56.8935Z" fill="#5FA04E"/>
</svg>
