<svg width="92" height="80" viewBox="0 0 92 80" fill="none" xmlns="http://www.w3.org/2000/svg">
<path d="M54.142 40.0038C54.142 35.637 50.4909 32.0964 45.9865 32.0964C41.4827 32.0964 37.8311 35.637 37.8311 40.0038C37.8311 44.3712 41.4827 47.9114 45.9865 47.9114C50.4909 47.9114 54.142 44.3712 54.142 40.0038Z" fill="#53C1DE"/>
<path fill-rule="evenodd" clip-rule="evenodd" d="M72.4742 25.3231C74.1964 18.5375 76.3612 5.95435 68.7296 1.68826C61.1337 -2.55922 51.2491 5.57974 46.0296 10.4651C40.8253 5.62842 30.663 -2.47575 23.038 1.80388C15.445 6.06562 17.7865 18.4401 19.5469 25.2683C12.464 27.2188 0.322266 31.4199 0.322266 40.0034C0.322266 48.5626 12.4514 53.1333 19.4924 55.082C17.7254 61.9479 15.5012 74.1456 23.1038 78.398C30.7574 82.6768 40.888 74.7655 46.1559 69.8266C51.4089 74.7408 61.1986 82.7039 68.796 78.4397C76.4172 74.1621 74.4323 61.7476 72.6717 54.8799C79.4971 52.9269 91.6522 48.4557 91.6522 40.0034C91.6522 31.5024 79.4454 27.2672 72.4742 25.3231ZM71.609 51.2404C70.453 47.6925 68.8928 43.9197 66.9843 40.0223C68.8061 36.2169 70.3057 32.4928 71.4294 28.9677C76.5399 30.4044 87.7509 33.6877 87.7509 40.0034C87.7509 46.3786 76.9926 49.6929 71.609 51.2404ZM66.8409 75.1658C61.1724 78.3471 52.7521 70.732 48.8727 67.1132C51.4464 64.384 54.0182 61.2112 56.5283 57.688C60.9438 57.3083 65.1148 56.6873 68.8977 55.8395C70.1367 60.6973 72.5344 71.9701 66.8409 75.1658ZM25.0533 75.1204C19.3841 71.951 21.9753 61.0663 23.2752 56.0087C27.016 56.8112 31.1571 57.3884 35.5829 57.7364C38.1094 61.1838 40.7559 64.3526 43.4227 67.1278C40.1278 70.2181 30.7488 78.3045 25.0533 75.1204ZM4.22355 40.0034C4.22355 33.6046 15.3676 30.345 20.5946 28.912C21.7377 32.5162 23.2368 36.2848 25.046 40.0957C23.2134 43.9632 21.6928 47.7915 20.5392 51.4383C15.5552 50.0549 4.22355 46.4063 4.22355 40.0034ZM24.9926 5.07776C30.6849 1.8831 39.5171 9.66341 43.2958 13.1653C40.6426 15.9278 38.0205 19.0727 35.5157 22.5004C31.2204 22.8864 27.1086 23.5062 23.3286 24.3367C21.9104 18.8295 19.3065 8.26898 24.9926 5.07776ZM59.3193 26.612C62.2333 26.9685 65.0253 27.4428 67.6468 28.0231C66.8598 30.4689 65.8789 33.0264 64.7236 35.6482C63.0489 32.5674 61.2512 29.5483 59.3193 26.612ZM46.0308 15.8686C47.8303 17.7587 49.6325 19.8694 51.4056 22.1594C47.8093 21.9944 44.2072 21.9938 40.611 22.157C42.3855 19.8883 44.2033 17.7807 46.0308 15.8686ZM27.2844 35.6455C26.1482 33.0328 25.1761 30.464 24.3823 27.9832C26.9881 27.4179 29.7671 26.9557 32.6622 26.605C30.7248 29.5349 28.9302 32.5527 27.2844 35.6455ZM32.7453 53.6719C29.7546 53.3483 26.9336 52.9096 24.3285 52.3598C25.1349 49.8354 26.1284 47.2112 27.2888 44.5422C28.9573 47.6672 30.7793 50.7143 32.7453 53.6719ZM46.1389 64.4056C44.2897 62.4709 42.4452 60.3311 40.6438 58.0295C44.2605 58.1671 47.8842 58.1675 51.5005 58.011C49.722 60.3545 47.9262 62.4974 46.1389 64.4056ZM64.7607 44.4065C65.9815 47.1043 67.0105 49.7143 67.8279 52.196C65.1796 52.782 62.3207 53.2539 59.3083 53.6043C61.2546 50.6123 63.0809 47.5464 64.7607 44.4065ZM54.3509 54.0628C48.8188 54.4461 43.2522 54.4418 37.7182 54.0941C34.5737 49.6406 31.7745 44.9569 29.3582 40.0945C31.7629 35.2421 34.5418 30.5675 37.6714 26.121C43.2093 25.7152 48.7813 25.714 54.3193 26.1234C57.4221 30.5697 60.1967 35.2321 62.6571 40.0406C60.2259 44.8905 57.4324 49.5745 54.3509 54.0628ZM66.781 4.9653C72.4748 8.14949 69.9404 19.4583 68.6965 24.376C64.9075 23.5281 60.7928 22.8973 56.485 22.5052C53.9753 19.0406 51.3751 15.8901 48.7649 13.1634C52.5919 9.58602 61.1422 1.81226 66.781 4.9653Z" fill="#53C1DE"/>
</svg>
