<svg width="92" height="56" viewBox="0 0 92 56" fill="none" xmlns="http://www.w3.org/2000/svg">
<path d="M23.3286 18.6285C26.3717 6.49011 33.9792 0.420898 46.1514 0.420898C64.4096 0.420898 66.6919 14.0766 75.821 16.3526C81.9071 17.8699 87.2324 15.5939 91.7969 9.52472C88.7539 21.6631 81.1463 27.7324 68.9742 27.7324C50.7159 27.7324 48.4337 14.0766 39.3046 11.8007C33.2185 10.2834 27.8932 12.5593 23.3286 18.6285ZM0.505859 45.94C3.54889 33.8016 11.1565 27.7324 23.3286 27.7324C41.5868 27.7324 43.8691 41.3881 52.9982 43.664C59.0843 45.1813 64.4096 42.9054 68.9742 36.8362C65.9311 48.9746 58.3235 55.0438 46.1514 55.0438C27.8932 55.0438 25.6109 41.3881 16.4818 39.1121C10.3957 37.5948 5.07041 39.8708 0.505859 45.94Z" fill="#44A8B3"/>
</svg>
