<svg width="81" height="80" viewBox="0 0 81 80" fill="none" xmlns="http://www.w3.org/2000/svg">
<path d="M72.3454 0.500732H8.44878C4.16612 0.500732 0.694336 3.97252 0.694336 8.25518V72.1518C0.694336 76.4345 4.16612 79.9063 8.44878 79.9063H72.3454C76.6281 79.9063 80.0999 76.4345 80.0999 72.1518V8.25518C80.0999 3.97252 76.6281 0.500732 72.3454 0.500732Z" fill="#3178C6"/>
<path fill-rule="evenodd" clip-rule="evenodd" d="M49.8484 63.6879V71.4518C51.1105 72.0988 52.6032 72.584 54.3265 72.9075C56.0499 73.231 57.8661 73.3927 59.7756 73.3927C61.6365 73.3927 63.4042 73.2149 65.079 72.8589C66.7538 72.5032 68.2224 71.9168 69.4845 71.0999C70.7466 70.2832 71.7458 69.2156 72.482 67.8973C73.2182 66.5791 73.5864 64.9495 73.5864 63.0086C73.5864 61.6013 73.3761 60.3681 72.9554 59.3087C72.5346 58.2492 71.9279 57.3071 71.1349 56.4822C70.3421 55.6572 69.3914 54.9172 68.283 54.2621C67.1746 53.607 65.9246 52.9883 64.5329 52.4061C63.5135 51.9855 62.5993 51.5772 61.7902 51.1809C60.9811 50.7845 60.2934 50.3802 59.727 49.9678C59.1607 49.5553 58.7238 49.1185 58.4164 48.6576C58.109 48.1965 57.9552 47.675 57.9552 47.0926C57.9552 46.5589 58.0927 46.0777 58.3679 45.649C58.643 45.2204 59.0313 44.8525 59.5329 44.5451C60.0346 44.2379 60.6494 43.9992 61.3775 43.8294C62.1058 43.6596 62.9147 43.5747 63.8048 43.5747C64.452 43.5747 65.1356 43.6233 65.8557 43.7202C66.5758 43.8173 67.2999 43.9669 68.0282 44.169C68.7563 44.3713 69.4642 44.6261 70.152 44.9333C70.8396 45.2407 71.4747 45.5965 72.0572 46.0009V38.7465C70.8761 38.2936 69.5856 37.958 68.1859 37.7397C66.7862 37.5213 65.1801 37.4121 63.3679 37.4121C61.5231 37.4121 59.7756 37.6103 58.1251 38.0066C56.4747 38.4028 55.0224 39.0215 53.7682 39.8625C52.5142 40.7037 51.5232 41.7752 50.795 43.0774C50.0669 44.3793 49.7027 45.9361 49.7027 47.7477C49.7027 50.0607 50.3702 52.034 51.7052 53.6678C53.0401 55.3013 55.0668 56.6842 57.7853 57.8165C58.8533 58.2533 59.8485 58.6818 60.7708 59.1024C61.6931 59.523 62.4901 59.9597 63.1615 60.4126C63.833 60.8654 64.363 61.3588 64.7515 61.8926C65.1398 62.4262 65.334 63.0328 65.334 63.7122C65.334 64.2136 65.2125 64.6786 64.9698 65.1073C64.7271 65.5359 64.3589 65.9078 63.8654 66.2233C63.372 66.5387 62.757 66.7853 62.0208 66.9632C61.2845 67.1413 60.4229 67.2301 59.4358 67.2301C57.7529 67.2301 56.0863 66.935 54.4357 66.3446C52.7853 65.7543 51.2561 64.8687 49.8484 63.6879ZM36.7962 44.5589H46.756V38.1876H18.9951V44.5589H28.9062V72.9275H36.7962V44.5589Z" fill="white"/>
</svg>
