<svg xmlns="http://www.w3.org/2000/svg" xmlns:xlink="http://www.w3.org/1999/xlink" width="120" zoomAndPan="magnify" viewBox="0 0 90 89.999999" height="120" preserveAspectRatio="xMidYMid meet" version="1.2"><defs><clipPath id="107c01232d"><path d="M 4.5 0 L 85.5 0 C 87.984375 0 90 2.015625 90 4.5 L 90 85.5 C 90 87.984375 87.984375 90 85.5 90 L 4.5 90 C 2.015625 90 0 87.984375 0 85.5 L 0 4.5 C 0 2.015625 2.015625 0 4.5 0 Z M 4.5 0 "/></clipPath></defs><g id="769a21039d"><rect x="0" width="90" y="0" height="89.999999" style="fill:#ffffff;fill-opacity:1;stroke:none;"/><rect x="0" width="90" y="0" height="89.999999" style="fill:#ffffff;fill-opacity:1;stroke:none;"/><g clip-rule="nonzero" clip-path="url(#107c01232d)"><rect x="0" width="90" y="0" height="89.999999" style="fill:#000000;fill-opacity:1;stroke:none;"/></g><g style="fill:#ffffff;fill-opacity:1;"><g transform="translate(0.0000005, 56.665409)"><path style="stroke:none" d="M 12.84375 0.3125 C 10.75 0.3125 8.863281 -0.175781 7.1875 -1.15625 C 5.519531 -2.132812 4.210938 -3.476562 3.265625 -5.1875 C 2.316406 -6.894531 1.84375 -8.8125 1.84375 -10.9375 C 1.84375 -13.0625 2.316406 -14.976562 3.265625 -16.6875 C 4.210938 -18.40625 5.519531 -19.753906 7.1875 -20.734375 C 8.863281 -21.710938 10.75 -22.203125 12.84375 -22.203125 C 14.9375 -22.203125 16.816406 -21.710938 18.484375 -20.734375 C 20.160156 -19.753906 21.472656 -18.40625 22.421875 -16.6875 C 23.367188 -14.976562 23.84375 -13.0625 23.84375 -10.9375 C 23.84375 -8.8125 23.367188 -6.894531 22.421875 -5.1875 C 21.472656 -3.476562 20.160156 -2.132812 18.484375 -1.15625 C 16.816406 -0.175781 14.9375 0.3125 12.84375 0.3125 Z M 12.84375 -2.078125 C 14.4375 -2.078125 15.867188 -2.445312 17.140625 -3.1875 C 18.410156 -3.925781 19.40625 -4.96875 20.125 -6.3125 C 20.84375 -7.65625 21.203125 -9.195312 21.203125 -10.9375 C 21.203125 -12.6875 20.84375 -14.234375 20.125 -15.578125 C 19.40625 -16.921875 18.410156 -17.960938 17.140625 -18.703125 C 15.867188 -19.441406 14.4375 -19.8125 12.84375 -19.8125 C 11.238281 -19.8125 9.800781 -19.441406 8.53125 -18.703125 C 7.257812 -17.960938 6.265625 -16.921875 5.546875 -15.578125 C 4.835938 -14.234375 4.484375 -12.6875 4.484375 -10.9375 C 4.484375 -9.195312 4.835938 -7.65625 5.546875 -6.3125 C 6.265625 -4.96875 7.257812 -3.925781 8.53125 -3.1875 C 9.800781 -2.445312 11.238281 -2.078125 12.84375 -2.078125 Z M 13.296875 -4.625 C 12.078125 -4.625 11.023438 -4.863281 10.140625 -5.34375 C 9.253906 -5.832031 8.570312 -6.550781 8.09375 -7.5 C 7.625 -8.445312 7.390625 -9.59375 7.390625 -10.9375 C 7.390625 -12.300781 7.625 -13.453125 8.09375 -14.390625 C 8.570312 -15.335938 9.253906 -16.050781 10.140625 -16.53125 C 11.023438 -17.019531 12.078125 -17.265625 13.296875 -17.265625 C 14.523438 -17.265625 15.535156 -17.023438 16.328125 -16.546875 C 17.117188 -16.078125 17.71875 -15.375 18.125 -14.4375 L 15.84375 -13.078125 L 15.609375 -13.078125 C 15.367188 -13.597656 15.066406 -13.984375 14.703125 -14.234375 C 14.335938 -14.492188 13.867188 -14.625 13.296875 -14.625 C 11.503906 -14.625 10.609375 -13.394531 10.609375 -10.9375 C 10.609375 -9.65625 10.835938 -8.722656 11.296875 -8.140625 C 11.765625 -7.566406 12.429688 -7.28125 13.296875 -7.28125 C 13.941406 -7.28125 14.457031 -7.457031 14.84375 -7.8125 C 15.238281 -8.175781 15.523438 -8.703125 15.703125 -9.390625 L 15.921875 -9.390625 L 18.296875 -8.234375 C 17.390625 -5.828125 15.722656 -4.625 13.296875 -4.625 Z M 13.296875 -4.625 "/></g><g transform="translate(25.682926, 56.665409)"><path style="stroke:none" d=""/></g><g transform="translate(32.911861, 56.665409)"><path style="stroke:none" d="M 7.171875 0 L 2.84375 0 L 2.84375 -21.890625 L 7.171875 -21.890625 Z M 7.171875 0 "/></g><g transform="translate(42.939577, 56.665409)"><path style="stroke:none" d="M 6.8125 0 L 2.84375 0 L 2.84375 -21.890625 L 8.5 -21.890625 L 14.046875 -5.796875 L 14.359375 -5.796875 L 19.859375 -21.890625 L 25.390625 -21.890625 L 25.390625 0 L 21.28125 0 L 21.28125 -14.453125 L 20.90625 -14.515625 L 15.859375 0 L 12.25 0 L 7.1875 -14.515625 L 6.8125 -14.453125 Z M 6.8125 0 "/></g><g transform="translate(71.181815, 56.665409)"><path style="stroke:none" d="M 9.703125 0.3125 C 8.179688 0.3125 6.828125 0.125 5.640625 -0.25 C 4.460938 -0.625 3.476562 -1.113281 2.6875 -1.71875 C 1.90625 -2.332031 1.304688 -3.003906 0.890625 -3.734375 L 3.265625 -6.625 L 3.640625 -6.625 C 4.296875 -5.65625 5.128906 -4.878906 6.140625 -4.296875 C 7.160156 -3.710938 8.347656 -3.421875 9.703125 -3.421875 C 10.859375 -3.421875 11.726562 -3.664062 12.3125 -4.15625 C 12.90625 -4.644531 13.203125 -5.320312 13.203125 -6.1875 C 13.203125 -6.695312 13.109375 -7.128906 12.921875 -7.484375 C 12.734375 -7.835938 12.414062 -8.132812 11.96875 -8.375 C 11.53125 -8.625 10.9375 -8.84375 10.1875 -9.03125 L 7.375 -9.671875 C 5.414062 -10.117188 3.953125 -10.863281 2.984375 -11.90625 C 2.023438 -12.945312 1.546875 -14.300781 1.546875 -15.96875 C 1.546875 -17.207031 1.851562 -18.296875 2.46875 -19.234375 C 3.082031 -20.171875 3.984375 -20.898438 5.171875 -21.421875 C 6.359375 -21.941406 7.773438 -22.203125 9.421875 -22.203125 C 11.097656 -22.203125 12.535156 -21.976562 13.734375 -21.53125 C 14.941406 -21.082031 15.960938 -20.398438 16.796875 -19.484375 L 14.65625 -16.5625 L 14.28125 -16.5625 C 13.664062 -17.207031 12.957031 -17.691406 12.15625 -18.015625 C 11.351562 -18.335938 10.441406 -18.5 9.421875 -18.5 C 8.234375 -18.5 7.328125 -18.289062 6.703125 -17.875 C 6.085938 -17.457031 5.78125 -16.878906 5.78125 -16.140625 C 5.78125 -15.453125 5.992188 -14.898438 6.421875 -14.484375 C 6.859375 -14.078125 7.613281 -13.757812 8.6875 -13.53125 L 11.5625 -12.9375 C 13.6875 -12.488281 15.226562 -11.726562 16.1875 -10.65625 C 17.144531 -9.582031 17.625 -8.179688 17.625 -6.453125 C 17.625 -5.085938 17.328125 -3.894531 16.734375 -2.875 C 16.148438 -1.863281 15.265625 -1.078125 14.078125 -0.515625 C 12.890625 0.0351562 11.429688 0.3125 9.703125 0.3125 Z M 9.703125 0.3125 "/></g></g></g></svg>