<svg width="40" height="40" viewBox="0 0 40 40" fill="none" xmlns="http://www.w3.org/2000/svg">
<rect x="0.5" y="0.5" width="39" height="39" rx="19.5" stroke="#D0D0D5"/>
<path d="M19.5 17.05C20.417 16.113 21.611 15.5 23 15.5C24.4587 15.5 25.8576 16.0795 26.8891 17.1109C27.9205 18.1424 28.5 19.5413 28.5 21V28.5H26.5V21C26.5 20.0717 26.1313 19.1815 25.4749 18.5251C24.8185 17.8687 23.9283 17.5 23 17.5C22.0717 17.5 21.1815 17.8687 20.5251 18.5251C19.8687 19.1815 19.5 20.0717 19.5 21V28.5H17.5V16H19.5V17.05ZM12.5 14C12.1022 14 11.7206 13.842 11.4393 13.5607C11.158 13.2794 11 12.8978 11 12.5C11 12.1022 11.158 11.7206 11.4393 11.4393C11.7206 11.158 12.1022 11 12.5 11C12.8978 11 13.2794 11.158 13.5607 11.4393C13.842 11.7206 14 12.1022 14 12.5C14 12.8978 13.842 13.2794 13.5607 13.5607C13.2794 13.842 12.8978 14 12.5 14ZM11.5 16H13.5V28.5H11.5V16Z" fill="#F3F3F4"/>
</svg>
